<svg width="21" height="16" viewBox="0 0 21 16" fill="none" xmlns="http://www.w3.org/2000/svg">
<path d="M1.25 13C1.58152 13 1.89946 13.1317 2.13388 13.3661C2.3683 13.6005 2.5 13.9185 2.5 14.25C2.5 14.5815 2.3683 14.8995 2.13388 15.1339C1.89946 15.3683 1.58152 15.5 1.25 15.5C0.918479 15.5 0.600537 15.3683 0.366117 15.1339C0.131696 14.8995 0 14.5815 0 14.25C0 13.9185 0.131696 13.6005 0.366117 13.3661C0.600537 13.1317 0.918479 13 1.25 13V13ZM4.75 13.5H19.25C19.4414 13.4981 19.6263 13.5693 19.7668 13.6993C19.9073 13.8292 19.9928 14.0079 20.0059 14.1989C20.0189 14.3898 19.9585 14.5785 19.8369 14.7263C19.7153 14.8742 19.5419 14.9699 19.352 14.994L19.25 15H4.75C4.55998 14.9999 4.37706 14.9278 4.23821 14.798C4.09936 14.6683 4.01493 14.4907 4.00197 14.3011C3.98902 14.1115 4.04852 13.9241 4.16843 13.7767C4.28835 13.6293 4.45975 13.5329 4.648 13.507L4.75 13.5H19.25H4.75ZM1.25 6.5C1.58152 6.5 1.89946 6.6317 2.13388 6.86612C2.3683 7.10054 2.5 7.41848 2.5 7.75C2.5 8.08152 2.3683 8.39946 2.13388 8.63388C1.89946 8.8683 1.58152 9 1.25 9C0.918479 9 0.600537 8.8683 0.366117 8.63388C0.131696 8.39946 0 8.08152 0 7.75C0 7.41848 0.131696 7.10054 0.366117 6.86612C0.600537 6.6317 0.918479 6.5 1.25 6.5V6.5ZM4.75 7H19.25C19.4414 6.99805 19.6263 7.06934 19.7668 7.19927C19.9073 7.3292 19.9928 7.50793 20.0059 7.69888C20.0189 7.88982 19.9585 8.07852 19.8369 8.22634C19.7153 8.37416 19.5419 8.46992 19.352 8.494L19.25 8.5H4.75C4.55998 8.49994 4.37706 8.42776 4.23821 8.29803C4.09936 8.1683 4.01493 7.9907 4.00197 7.80112C3.98902 7.61154 4.04852 7.42411 4.16843 7.2767C4.28835 7.12929 4.45975 7.0329 4.648 7.007L4.75 7H19.25H4.75ZM1.25 0C1.58152 0 1.89946 0.131696 2.13388 0.366117C2.3683 0.600537 2.5 0.918479 2.5 1.25C2.5 1.58152 2.3683 1.89946 2.13388 2.13388C1.89946 2.3683 1.58152 2.5 1.25 2.5C0.924731 2.4908 0.615872 2.35512 0.389057 2.1218C0.162242 1.88847 0.0353518 1.5759 0.0353518 1.2505C0.0353518 0.925101 0.162242 0.612528 0.389057 0.379205C0.615872 0.145882 0.924731 0.0102027 1.25 0.000999928V0ZM4.75 0.5H19.25C19.4414 0.498054 19.6263 0.569344 19.7668 0.699271C19.9073 0.829199 19.9928 1.00793 20.0059 1.19888C20.0189 1.38982 19.9585 1.57852 19.8369 1.72634C19.7153 1.87416 19.5419 1.96992 19.352 1.994L19.25 2H4.75C4.55998 1.99994 4.37706 1.92776 4.23821 1.79803C4.09936 1.6683 4.01493 1.4907 4.00197 1.30112C3.98902 1.11154 4.04852 0.924108 4.16843 0.776701C4.28835 0.629294 4.45975 0.532901 4.648 0.507L4.75 0.5H19.25H4.75Z" fill="#F8F8F8"/>
</svg>
