<svg width="18" height="10" viewBox="0 0 18 10" fill="none" xmlns="http://www.w3.org/2000/svg">
<path d="M6 -1.46347e-05H8V9.99999H6V5.99999H2V9.99999H0V-1.46347e-05H2V3.99999H6V-1.46347e-05ZM14 7.99999C14.51 7.58999 14.6 7.37999 15.06 6.94999C15.497 6.54999 15.908 6.12199 16.29 5.66999C16.6237 5.279 16.9091 4.84924 17.14 4.38999C17.339 3.99999 17.445 3.56799 17.45 3.12999C17.455 2.68867 17.3628 2.25167 17.18 1.84999C17.0027 1.46517 16.7433 1.12384 16.42 0.849985C16.074 0.566887 15.6768 0.353 15.25 0.219985C14.7649 0.0670881 14.2585 -0.00718451 13.75 -1.46347e-05C13.391 -1.46347e-05 13.033 0.0329853 12.68 0.0999853C12.3373 0.160825 12.0021 0.258041 11.68 0.389985C11.3759 0.520688 11.0875 0.685046 10.82 0.879985C10.533 1.08999 10.259 1.31699 10 1.55999L11.24 2.77999C11.5479 2.5123 11.8831 2.27768 12.24 2.07999C12.59 1.87899 12.987 1.77599 13.39 1.77999C13.8451 1.75097 14.2956 1.88576 14.66 2.15999C14.971 2.43799 15.137 2.84399 15.11 3.25999C15.0958 3.65631 14.9711 4.04078 14.75 4.36999C14.4647 4.82289 14.1292 5.2422 13.75 5.61999C13.31 6.04999 12.77 6.53999 12.16 7.04999C11.55 7.55999 10.75 8.10999 10 8.69999V9.99999H18V7.99999H14Z" fill="black"/>
</svg>
