<svg width="18" height="10" viewBox="0 0 18 10" fill="none" xmlns="http://www.w3.org/2000/svg">
<path d="M8 10.0001H6V6.00007H2V10.0001H0V7.06956e-05H2V4.00007H6V7.06956e-05H8V10.0001ZM16.579 2.49207C16.3321 2.28809 16.0556 2.12287 15.759 2.00207C15.135 1.76009 14.443 1.76009 13.819 2.00207C13.5213 2.11085 13.2539 2.28913 13.039 2.52207C12.795 2.79207 12.608 3.10807 12.489 3.45207C12.3312 3.91268 12.2468 4.39524 12.239 4.88207C12.6068 4.55346 13.0301 4.29275 13.489 4.11207C13.895 3.94107 14.329 3.85007 14.769 3.84207C15.185 3.83607 15.599 3.89007 15.999 4.00207C16.364 4.12007 16.704 4.30607 16.999 4.55207C17.295 4.80507 17.528 5.12307 17.679 5.48207C17.873 5.88507 17.982 6.32507 17.999 6.77207C18.009 7.24007 17.906 7.70307 17.699 8.12207C17.4938 8.50879 17.2113 8.84918 16.869 9.12207C16.5129 9.4091 16.1057 9.62624 15.669 9.76207C14.6903 10.0729 13.6368 10.0553 12.669 9.71207C12.1627 9.52998 11.702 9.23995 11.319 8.86207C10.8832 8.44629 10.5422 7.9415 10.319 7.38207C10.0768 6.68877 9.96817 5.95583 9.999 5.22207C9.98106 4.42537 10.1099 3.63216 10.379 2.88207C10.5952 2.27799 10.9359 1.72607 11.379 1.26207C11.786 0.846071 12.277 0.52207 12.819 0.31207C13.3612 0.10313 13.9379 -0.00202925 14.519 0.00207055C15.2015 -0.0172107 15.8812 0.098328 16.519 0.342071C17.019 0.532071 17.482 0.806071 17.889 1.15207L16.579 2.49207V2.49207ZM14.189 8.33207C14.392 8.33307 14.595 8.30207 14.789 8.24207C14.973 8.19607 15.146 8.11407 15.299 8.00207C15.45 7.86607 15.57 7.69907 15.649 7.51207C15.742 7.28707 15.786 7.04507 15.779 6.80207C15.7977 6.60236 15.7685 6.40106 15.6937 6.21494C15.6189 6.02883 15.5007 5.86327 15.349 5.73207C15.0225 5.50109 14.6286 5.38503 14.229 5.40207C13.8845 5.39966 13.5435 5.47128 13.229 5.61207C12.8472 5.78094 12.5062 6.02989 12.229 6.34207C12.276 6.68807 12.373 7.02507 12.519 7.34207C12.628 7.57307 12.777 7.78307 12.959 7.96207C13.112 8.11107 13.297 8.22307 13.499 8.29207C13.725 8.34707 13.959 8.36007 14.189 8.33207V8.33207Z" fill="black"/>
</svg>
