<svg width="18" height="11" viewBox="0 0 18 11" fill="none" xmlns="http://www.w3.org/2000/svg">
<path d="M11.09 7.19C11.442 7.459 11.82 7.69 12.22 7.88C12.6391 8.07644 13.0972 8.17558 13.56 8.17C14.0693 8.18409 14.571 8.04473 15 7.77C15.1856 7.64561 15.3357 7.47515 15.4356 7.27531C15.5355 7.07548 15.5818 6.85311 15.57 6.63C15.5791 6.40869 15.5316 6.18872 15.4318 5.99095C15.332 5.79319 15.1834 5.62419 15 5.5C14.5936 5.22574 14.1099 5.08904 13.62 5.11H13.15C13.0145 5.1242 12.8806 5.15099 12.75 5.19L12.34 5.34L11.86 5.57L10.84 5L11.12 0H17.52V1.92H13.21L13 3.76C13.2217 3.68262 13.449 3.62244 13.68 3.58C13.915 3.543 14.152 3.526 14.39 3.53C14.853 3.526 15.314 3.587 15.76 3.71C16.171 3.825 16.558 4.015 16.9 4.27C17.23 4.518 17.497 4.84 17.68 5.21C17.892 5.632 18.002 6.098 18 6.57C18.007 7.067 17.89 7.559 17.66 8C17.436 8.41721 17.1258 8.78196 16.75 9.07C16.357 9.37 15.913 9.597 15.44 9.74C14.9428 9.90423 14.4235 9.99189 13.9 10C13.1118 10.0232 12.3268 9.8907 11.59 9.61C11.0059 9.37162 10.4678 9.03321 10 8.61L11.09 7.19V7.19ZM8 10H6V6H2V10H0V0H2V4H6V0H8V10Z" fill="#F8F8F8"/>
</svg>
