<svg width="18" height="11" viewBox="0 0 18 11" fill="none" xmlns="http://www.w3.org/2000/svg">
<path d="M11.11 7.22058C11.465 7.50758 11.859 7.74358 12.28 7.92058C12.714 8.10158 13.18 8.19358 13.65 8.19058C14.134 8.20758 14.615 8.10458 15.05 7.89058C15.2132 7.8189 15.3521 7.70135 15.4497 7.55223C15.5473 7.4031 15.5996 7.22883 15.6 7.05058C15.6028 6.84731 15.551 6.64701 15.45 6.47058C15.3268 6.27948 15.1492 6.1297 14.94 6.04058C14.6212 5.9035 14.2845 5.81259 13.94 5.77058C13.4367 5.69781 12.9285 5.66437 12.42 5.67058V4.10058C13.1616 4.15278 13.905 4.02944 14.59 3.74058C14.7716 3.66015 14.9269 3.53032 15.0383 3.3659C15.1497 3.20147 15.2127 3.00905 15.22 2.81058C15.2328 2.65416 15.2044 2.49711 15.1378 2.35502C15.0711 2.21293 14.9685 2.09074 14.84 2.00058C14.4994 1.79738 14.1061 1.69992 13.71 1.72058C13.3146 1.73339 12.9263 1.82876 12.57 2.00058C12.1949 2.16753 11.8394 2.37547 11.51 2.62058L10.29 1.23058C10.7908 0.853659 11.3431 0.550569 11.93 0.330582C12.5381 0.106489 13.1819 -0.00532391 13.83 0.000582374C14.355 -0.0064739 14.8789 0.0506155 15.39 0.170582C15.821 0.271582 16.23 0.447582 16.6 0.690582C16.925 0.901582 17.195 1.18558 17.39 1.52058C17.58 1.86258 17.677 2.24958 17.67 2.64058C17.681 3.12058 17.493 3.58358 17.15 3.92058C16.7329 4.31166 16.2343 4.60538 15.69 4.78058V4.84058C16.299 4.98058 16.865 5.26558 17.34 5.67058C17.777 6.05258 18.02 6.61058 18 7.19058C18.005 7.61158 17.887 8.02558 17.66 8.38058C17.4293 8.73726 17.1218 9.03791 16.76 9.26058C16.3524 9.51369 15.9067 9.69941 15.44 9.81058C14.9265 9.93863 14.3992 10.0025 13.87 10.0006C13.0838 10.0198 12.3008 9.89435 11.56 9.63058C10.9698 9.41617 10.4338 9.0748 9.99 8.63058L11.11 7.22058V7.22058ZM6 4.00258H2V0.00258223H0V10.0026H2V6.00258H6V10.0026H8V0.00258223H6V4.00258Z" fill="#F8F8F8"/>
</svg>
