<svg width="24" height="24" viewBox="0 0 24 24" fill="none" xmlns="http://www.w3.org/2000/svg">
<path d="M5.99977 2.74997C5.99962 2.57844 5.94068 2.41214 5.83277 2.2788C5.72486 2.14546 5.57451 2.05314 5.40678 2.01723C5.23904 1.98132 5.06407 2.00399 4.91103 2.08147C4.75799 2.15894 4.63613 2.28653 4.56577 2.44297L4.56377 2.44597C4.5437 2.49108 4.52134 2.53514 4.49677 2.57797C4.42451 2.71022 4.34506 2.83841 4.25877 2.96197C4.04177 3.27497 3.73477 3.62497 3.35277 3.86397C3.26642 3.91474 3.19112 3.98229 3.13131 4.06263C3.0715 4.14298 3.02839 4.23449 3.00452 4.33177C2.98065 4.42905 2.97651 4.53012 2.99234 4.62903C3.00817 4.72793 3.04365 4.82266 3.09669 4.90763C3.14973 4.9926 3.21925 5.06609 3.30115 5.12375C3.38305 5.18141 3.47567 5.22208 3.57355 5.24337C3.67143 5.26465 3.77257 5.26611 3.87103 5.24767C3.96948 5.22922 4.06324 5.19124 4.14677 5.13597C4.27177 5.05797 4.38977 4.97497 4.49977 4.88797V7.24997C4.49977 7.44888 4.57879 7.63965 4.71944 7.7803C4.86009 7.92095 5.05086 7.99997 5.24977 7.99997C5.44868 7.99997 5.63945 7.92095 5.7801 7.7803C5.92075 7.63965 5.99977 7.44888 5.99977 7.24997V2.74997Z" fill="#F8F8F8"/>
<path d="M19.4999 18H10.9999L10.8829 18.007C10.6298 18.0371 10.3977 18.1627 10.2341 18.3582C10.0705 18.5536 9.98776 18.8042 10.0027 19.0586C10.0176 19.313 10.1292 19.5522 10.3145 19.7272C10.4998 19.9021 10.745 19.9997 10.9999 20H19.4999L19.6159 19.993C19.8689 19.9629 20.1009 19.8374 20.2645 19.642C20.428 19.4467 20.5109 19.1963 20.4961 18.9419C20.4813 18.6875 20.3699 18.4484 20.1848 18.2734C19.9996 18.0983 19.7547 18.0005 19.4999 18V18Z" fill="#F8F8F8"/>
<path d="M19.4999 11.5H10.9999L10.8829 11.507C10.6298 11.5371 10.3977 11.6627 10.2341 11.8582C10.0705 12.0536 9.98776 12.3042 10.0027 12.5586C10.0176 12.813 10.1292 13.0522 10.3145 13.2272C10.4998 13.4021 10.745 13.4997 10.9999 13.5H19.4999L19.6159 13.493C19.8689 13.4629 20.1009 13.3374 20.2645 13.142C20.428 12.9467 20.5109 12.6963 20.4961 12.4419C20.4813 12.1875 20.3699 11.9484 20.1848 11.7734C19.9996 11.5983 19.7547 11.5005 19.4999 11.5Z" fill="#F8F8F8"/>
<path d="M19.4999 5H10.9999L10.8829 5.007C10.6298 5.0371 10.3977 5.16271 10.2341 5.35817C10.0705 5.55362 9.98776 5.80416 10.0027 6.05861C10.0176 6.31305 10.1292 6.55218 10.3145 6.72715C10.4998 6.90212 10.745 6.99972 10.9999 7H19.4999L19.6159 6.993C19.8689 6.96291 20.1009 6.83737 20.2645 6.64203C20.428 6.44668 20.5109 6.19626 20.4961 5.94189C20.4813 5.68753 20.3699 5.44841 20.1848 5.27336C19.9996 5.09831 19.7547 5.00053 19.4999 5Z" fill="#F8F8F8"/>
<path d="M5.14967 10.52C4.84967 10.467 4.47367 10.586 4.27967 10.78C4.211 10.8537 4.1282 10.9128 4.0362 10.9538C3.9442 10.9948 3.84489 11.0168 3.74419 11.0186C3.64349 11.0204 3.54346 11.0019 3.45007 10.9641C3.35668 10.9264 3.27185 10.8703 3.20063 10.799C3.12941 10.7278 3.07326 10.643 3.03554 10.5496C2.99782 10.4562 2.9793 10.3562 2.98107 10.2555C2.98285 10.1548 3.00489 10.0555 3.04588 9.96347C3.08688 9.87147 3.14598 9.78867 3.21967 9.72001C3.77567 9.16401 4.64967 8.90801 5.41167 9.04301C5.80867 9.11301 6.21667 9.29701 6.52667 9.64801C6.84267 10.006 6.99967 10.473 6.99967 11C6.99967 11.62 6.72867 12.08 6.39367 12.42C6.11567 12.703 5.76367 12.931 5.48767 13.109L5.40767 13.16C5.24175 13.2652 5.08122 13.3787 4.92667 13.5H6.24967C6.44858 13.5 6.63934 13.579 6.78 13.7197C6.92065 13.8603 6.99967 14.0511 6.99967 14.25C6.99967 14.4489 6.92065 14.6397 6.78 14.7803C6.63934 14.921 6.44858 15 6.24967 15H3.74967C3.55075 15 3.35999 14.921 3.21934 14.7803C3.07868 14.6397 2.99967 14.4489 2.99967 14.25C2.99967 12.936 3.98367 12.297 4.57467 11.913L4.63467 11.873C4.95267 11.668 5.16767 11.528 5.32467 11.369C5.45867 11.233 5.49967 11.131 5.49967 11C5.49967 10.777 5.43867 10.682 5.40167 10.64C5.33406 10.5727 5.24554 10.5303 5.15067 10.52H5.14967Z" fill="#F8F8F8"/>
<path d="M2.96982 21.28C2.96982 21.28 3.06282 21.364 2.97382 21.285L2.97982 21.29L2.99282 21.303C3.03991 21.348 3.09003 21.3898 3.14282 21.428C3.23782 21.498 3.36982 21.586 3.53982 21.671C3.88082 21.841 4.36982 22 4.99982 22C5.63982 22 6.19582 21.819 6.60082 21.46C7.00882 21.1 7.21082 20.603 7.19582 20.101C7.1836 19.6961 7.03328 19.3076 6.76982 19C7.02882 18.695 7.18182 18.315 7.19582 17.899C7.20378 17.6424 7.15452 17.3872 7.05161 17.1519C6.94869 16.9167 6.79471 16.7073 6.60082 16.539C6.19582 16.181 5.63982 16 4.99982 16C4.36982 16 3.88082 16.158 3.53982 16.33C3.35728 16.4209 3.18609 16.533 3.02982 16.664C3.0173 16.6748 3.00496 16.6858 2.99282 16.697L2.97982 16.71L2.97382 16.715L2.97182 16.718H2.96982L2.96882 16.72C2.83431 16.8606 2.7597 17.048 2.76075 17.2425C2.7618 17.4371 2.83843 17.6236 2.97444 17.7628C3.11046 17.9019 3.29523 17.9827 3.48972 17.9882C3.68422 17.9936 3.87322 17.9233 4.01682 17.792C4.07648 17.7452 4.14082 17.7046 4.20882 17.671C4.36782 17.591 4.62882 17.5 4.99882 17.5C5.35882 17.5 5.53482 17.6 5.60682 17.664C5.67682 17.725 5.69682 17.791 5.69482 17.851C5.69132 17.8958 5.67858 17.9393 5.65741 17.9789C5.63624 18.0185 5.6071 18.0532 5.57182 18.081C5.48282 18.158 5.30882 18.25 4.99882 18.25C4.79991 18.25 4.60914 18.329 4.46849 18.4697C4.32784 18.6103 4.24882 18.8011 4.24882 19C4.24882 19.1989 4.32784 19.3897 4.46849 19.5303C4.60914 19.671 4.79991 19.75 4.99882 19.75C5.30882 19.75 5.48282 19.842 5.57182 19.918C5.66282 19.998 5.69282 20.084 5.69482 20.149C5.6956 20.1849 5.68806 20.2204 5.6728 20.2528C5.65753 20.2853 5.63495 20.3138 5.60682 20.336C5.53482 20.4 5.35982 20.5 4.99882 20.5C4.72583 20.5057 4.45529 20.4475 4.20882 20.33C4.14078 20.2961 4.07643 20.2552 4.01682 20.208C3.87322 20.0767 3.68422 20.0064 3.48972 20.0118C3.29523 20.0173 3.11046 20.0981 2.97444 20.2372C2.83843 20.3764 2.7618 20.5629 2.76075 20.7575C2.7597 20.952 2.83431 21.1394 2.96882 21.28H2.96982ZM2.97182 16.717L2.97082 16.719C2.97782 16.713 3.17082 16.551 2.97082 16.717H2.97182Z" fill="#F8F8F8"/>
</svg>
